<svg xmlns="http://www.w3.org/2000/svg" width="20" height="20" viewBox="0 0 20 20"><g><g opacity=".75"><path fill="#fff" d="M5.753 6H17a1 1 0 0 1 1 1v2.513a1 1 0 0 1-.795.98l-9.095 1.9a1 1 0 0 1-1.184-.774zM1 2h1.874l2.302 11.007a2 2 0 0 0 2.367 1.548l10.866-2.272A2 2 0 0 0 20 10.325V6a2 2 0 0 0-2-2H5.335L4.666.796A1 1 0 0 0 3.687 0H1a1 1 0 0 0 0 2z"/></g><g opacity=".75"><path fill="#fff" d="M6.368 19.996a1.818 1.818 0 1 0 0-3.636 1.818 1.818 0 0 0 0 3.636z"/></g><g opacity=".75"><path fill="#fff" d="M15.458 19.996a1.818 1.818 0 1 0 0-3.636 1.818 1.818 0 0 0 0 3.636z"/></g></g></svg>