<svg xmlns="http://www.w3.org/2000/svg" width="22" height="18" viewBox="0 0 22 18"><g><g opacity=".75"><path fill="#fff" d="M15.5 9.5a4.5 4.5 0 1 0-9 0 4.5 4.5 0 0 0 9 0zm-2.732 1.768A2.5 2.5 0 1 1 9.232 7.73a2.5 2.5 0 0 1 3.536 3.537zM7.774 2.445A1 1 0 0 1 8.606 2h4.788a1 1 0 0 1 .832.445l1.407 2.11a1 1 0 0 0 .832.445H19a1 1 0 0 1 1 1v9a1 1 0 0 1-1 1H3a1 1 0 0 1-1-1V6a1 1 0 0 1 1-1h2.535a1 1 0 0 0 .832-.445zM3 3a3 3 0 0 0-3 3v9a3 3 0 0 0 3 3h16a3 3 0 0 0 3-3V6a3 3 0 0 0-3-3h-2L15.594.89A2 2 0 0 0 13.93 0H8.07a2 2 0 0 0-1.664.89L5 3z"/></g></g></svg>