<svg xmlns="http://www.w3.org/2000/svg" width="50" height="50" viewBox="0 0 50 50"><g><g><path fill="none" stroke="#af52de" stroke-miterlimit="20" stroke-width="1.5" d="M33.421 28.168c-1.234 0-2.442-.192-3.588-.571-.56-.193-1.193-.044-1.561.33l-2.27 1.715c-2.605-1.39-4.273-3.056-5.645-5.643l1.668-2.217c.42-.42.57-1.035.39-1.61a11.447 11.447 0 0 1-.573-3.593A1.58 1.58 0 0 0 20.263 15H16.58A1.58 1.58 0 0 0 15 16.579C15 26.736 23.264 35 33.421 35A1.58 1.58 0 0 0 35 33.421v-3.674a1.58 1.58 0 0 0-1.579-1.579z"/></g></g></svg>