<svg xmlns="http://www.w3.org/2000/svg" width="20" height="20" viewBox="0 0 20 20"><g><g opacity=".75"><path fill="#fff" d="M13.726 4.026a6.867 6.867 0 0 1 2.012 4.85 6.867 6.867 0 0 1-6.86 6.86 6.867 6.867 0 0 1-6.86-6.86 6.867 6.867 0 0 1 6.86-6.86 6.867 6.867 0 0 1 4.848 2.01zm4.026 4.85C17.752 3.982 13.77 0 8.876 0 3.982 0 0 3.982 0 8.876c0 4.893 3.982 8.876 8.876 8.876 1.97 0 3.882-.66 5.433-1.873l.08-.063 3.89 3.889a1.008 1.008 0 1 0 1.426-1.426l-3.889-3.888.063-.081a8.825 8.825 0 0 0 1.873-5.434z"/></g></g></svg>