<svg xmlns="http://www.w3.org/2000/svg" width="22" height="22" viewBox="0 0 22 22"><g><g opacity=".75"><path fill="#fff" d="M0 11C0 4.925 4.925 0 11 0s11 4.925 11 11-4.925 11-11 11S0 17.075 0 11zm11 9a9 9 0 1 0 0-18 9 9 0 0 0 0 18z"/></g><g opacity=".75"><path fill="#fff" d="M6.507 16.372c-.477-.399-.9-.86-1.257-1.372a6.992 6.992 0 0 1 5.745-3 6.992 6.992 0 0 1 5.746 3 7.04 7.04 0 0 1-1.258 1.372 5.198 5.198 0 0 0-4.488-2.572 5.198 5.198 0 0 0-4.488 2.572z"/></g><g opacity=".75"><path fill="#fff" d="M7.5 7.5a3.5 3.5 0 1 1 7 0 3.5 3.5 0 0 1-7 0zM11 9.2a1.7 1.7 0 1 0 0-3.4 1.7 1.7 0 0 0 0 3.4z"/></g></g></svg>