<svg xmlns="http://www.w3.org/2000/svg" width="138" height="16" viewBox="0 0 138 16"><g><g><path fill="#fff" d="M4.186 15.712L0 .281h2.746l3.216 11.852L9.409.28l2.56.001 3.459 11.915L18.657.284 21.404.28l-4.188 15.43-3.183-.004L10.69 4.182 7.343 15.71z"/></g><g><path fill="#fff" d="M23.3.28h2.614v15.413H23.3z"/></g><g><path fill="#fff" d="M31.5 13.276h6.363v2.417H28.94V.28h2.56z"/></g><g><path fill="#fff" d="M42.338 13.293V2.733h3.569c1.46 0 2.668.498 3.587 1.494.938.995 1.406 2.24 1.406 3.786 0 1.511-.468 2.791-1.406 3.787-.901.996-2.109 1.493-3.587 1.493zM45.907.28H39.76v15.413h6.147c2.145 0 3.93-.746 5.336-2.222 1.424-1.493 2.145-3.324 2.145-5.475 0-2.17-.721-4-2.145-5.476-1.406-1.476-3.19-2.222-5.336-2.222z"/></g><g><path fill="#fff" d="M62.48 13.346h-4.122V9.013h4.121c1.188 0 2.124.945 2.124 2.158 0 1.212-.936 2.157-2.124 2.157zM62 2.663c1.135 0 2 .89 2 2.028 0 1.139-.865 2.028-2 2.028h-3.642V2.663zm2.973 5.034c1.046-.765 1.587-1.796 1.587-3.148 0-1.21-.433-2.223-1.334-3.042C64.342.707 63.26.28 61.98.28H55.78v15.421h6.688c1.334 0 2.415-.427 3.335-1.263.919-.836 1.37-1.885 1.37-3.148 0-1.6-.83-2.881-2.2-3.593z"/></g><g><path fill="#fff" d="M72.17 13.282h6.922v2.42H69.61V.28h9.374v2.419H72.17v4.002h6.255v2.401H72.17z"/></g><g><path fill="#fff" d="M87.637 2.663c1.352 0 2.452 1.157 2.452 2.58 0 1.44-1.082 2.579-2.452 2.579H83.96V2.663zm5.498 13.038l-3.551-5.994c1.857-.711 3.1-2.508 3.1-4.464 0-1.388-.504-2.562-1.478-3.504C90.251.76 89.061.28 87.656.28H81.4v15.421h2.56v-5.62h3.028l3.317 5.62z"/></g><g><path fill="#fff" d="M101.337 2.665c1.352 0 2.452 1.159 2.452 2.585 0 1.444-1.082 2.586-2.452 2.586H97.66V2.665zm5.498 13.044l-3.551-5.997c1.857-.712 3.1-2.51 3.1-4.467 0-1.388-.504-2.563-1.477-3.506C103.95.76 102.76.28 101.355.28H95.1v15.43h2.56v-5.624h3.028l3.299 5.623z"/></g><g><path fill="#fff" d="M108.71.28h2.56v15.428h-2.56z"/></g><g><path fill="#fff" d="M116.85 13.282h6.922v2.42h-9.482V.28h9.374v2.419h-6.814v4.002h6.255v2.401h-6.255z"/></g><g><path fill="#fff" d="M125.56 12.196l2.217-1.28c.631 1.742 1.911 2.595 3.876 2.595 1.946 0 2.902-.818 2.902-2.027 0-.64-.271-1.102-.775-1.422-.505-.338-1.442-.71-2.776-1.102-1.497-.444-2.236-.729-3.281-1.404-1.01-.712-1.514-1.725-1.514-3.112 0-1.368.486-2.435 1.478-3.235C128.66.39 129.85 0 131.238 0c2.506 0 4.434 1.28 5.444 3.396l-2.163 1.226c-.649-1.422-1.749-2.15-3.281-2.15-1.496 0-2.452.746-2.452 1.92 0 1.137.758 1.67 3.155 2.4.595.195 1.028.337 1.298.444.288.088.667.248 1.154.444.504.196.901.427 1.135.622.829.64 1.713 1.69 1.605 3.165 0 1.386-.505 2.506-1.533 3.324-1.009.818-2.343 1.209-4.001 1.209-3.029-.018-5.228-1.44-6.039-3.804z"/></g></g></svg>